<svg xmlns="http://www.w3.org/2000/svg" width="3123.7" height="1052.7" viewBox="-167.3 -876.1 3123.7 1052.7">
<title>Trevio</title>
<g fill="#F5F4F1">
<path transform="translate(0.00 0)" d="M234.1990966796875 0.0V-593.5985107421875H12.1998291015625V-697.0H572.2000732421875V-593.5985107421875H351.2008056640625V0.0Z"/>
<path transform="translate(565.00 0)" d="M64.799560546875 0.0V-493.0H176.6011962890625V-359.7999267578125L156.2012939453125 -356.800048828125Q160.8011474609375 -400.0 184.9010009765625 -432.70001220703125Q209.0008544921875 -465.4000244140625 243.30078125 -483.800048828125Q277.6007080078125 -502.2000732421875 312.000732421875 -502.2000732421875Q336.2008056640625 -502.2000732421875 358.20086669921875 -496.20001220703125Q380.200927734375 -490.199951171875 403.801025390625 -476.1998291015625L349.80029296875 -376.1983642578125Q338.600341796875 -382.598388671875 321.50030517578125 -387.19842529296875Q304.4002685546875 -391.7984619140625 288.2001953125 -391.7984619140625Q267.0003662109375 -391.7984619140625 246.7005615234375 -383.99853515625Q226.4007568359375 -376.1986083984375 210.40093994140625 -359.79876708984375Q194.401123046875 -343.39892578125 185.6011962890625 -316.5992431640625Q181.201171875 -302.5992431640625 178.701171875 -280.499267578125Q176.201171875 -258.3992919921875 176.201171875 -218.19921875V0.0Z"/>
<path transform="translate(965.00 0)" d="M280.800048828125 9.2000732421875Q218.7998046875 9.2000732421875 173.49969482421875 -11.0999755859375Q128.1995849609375 -31.4000244140625 99.09954833984375 -67.00006103515625Q69.99951171875 -102.60009765625 55.8995361328125 -148.10009765625Q41.799560546875 -193.60009765625 41.799560546875 -243.4000244140625Q41.799560546875 -292.39990234375 55.59954833984375 -338.69989013671875Q69.3995361328125 -384.9998779296875 97.299560546875 -421.7999267578125Q125.1995849609375 -458.5999755859375 168.99969482421875 -480.4000244140625Q212.7998046875 -502.2000732421875 272.800048828125 -502.2000732421875Q330.2000732421875 -502.2000732421875 372.70013427734375 -482.7000732421875Q415.2001953125 -463.2000732421875 442.9002685546875 -428.800048828125Q470.600341796875 -394.4000244140625 484.400390625 -349.9998779296875Q498.200439453125 -305.5997314453125 498.200439453125 -255.7994384765625Q498.200439453125 -249.3992919921875 497.700439453125 -236.29937744140625Q497.200439453125 -223.199462890625 495.200439453125 -210.1993408203125H152.6011962890625Q156.80126953125 -151.0001220703125 192.80108642578125 -119.8006591796875Q228.8009033203125 -88.6011962890625 285.4002685546875 -88.6011962890625Q325.60009765625 -88.6011962890625 360.000244140625 -102.00115966796875Q394.400390625 -115.401123046875 422.400390625 -142.8009033203125L483.4005126953125 -69.1995849609375Q451.6002197265625 -41.399658203125 420.8001708984375 -24.0997314453125Q390.0001220703125 -6.7998046875 356.5001220703125 1.20013427734375Q323.0001220703125 9.2000732421875 280.800048828125 9.2000732421875ZM388.598876953125 -266.0001220703125Q390.598876953125 -274.0001220703125 391.4989013671875 -282.0001220703125Q392.39892578125 -290.0001220703125 392.39892578125 -297.60009765625Q392.39892578125 -319.5999755859375 384.49896240234375 -339.79974365234375Q376.5989990234375 -359.99951171875 361.6990966796875 -375.69927978515625Q346.7991943359375 -391.3990478515625 325.09942626953125 -400.4989013671875Q303.399658203125 -409.5987548828125 275.2000732421875 -409.5987548828125Q236.2003173828125 -409.5987548828125 209.40057373046875 -392.7989501953125Q182.600830078125 -375.9991455078125 168.4010009765625 -349.3995361328125Q154.201171875 -322.7999267578125 151.201171875 -292.4005126953125H425.3994140625Z"/>
<path transform="translate(1486.00 0)" d="M219.399658203125 0.0 17.7996826171875 -493.0H139.6014404296875L264.80029296875 -144.2021484375L391.7991943359375 -493.0H511.8009033203125L311.200927734375 0.0Z"/>
<path transform="translate(1996.00 0)" d="M63.799560546875 0.0V-493.0H174.6011962890625V0.0Z"/>
<path transform="translate(2215.00 0)" d="M287.4128901494014 9.2000732421875Q216.7998046875 9.2000732421875 161.0997314453125 -23.699951171875Q105.399658203125 -56.5999755859375 73.599609375 -114.77574388908617Q41.799560546875 -172.95151219223484 41.799560546875 -247.1757683031487Q41.799560546875 -321.4000244140625 73.29962158203125 -379.10003662109375Q104.7996826171875 -436.800048828125 160.499755859375 -469.50006103515625Q216.1998291015625 -502.2000732421875 287.39990234375 -502.2000732421875Q358.5999755859375 -502.2000732421875 413.49296001005456 -469.54652056356116Q468.3859444341716 -436.8929678849348 500.1930942873983 -379.1212977612113Q532.000244140625 -321.3496276374877 532.000244140625 -247.0Q532.000244140625 -173.0 500.275524585278 -115.11876126284099Q468.550805029931 -57.237522525681975 413.2883903206169 -24.018724641747237Q358.0259756113028 9.2000732421875 287.4128901494014 9.2000732421875ZM287.5388581928454 -88.601318359375Q328.799560546875 -88.601318359375 358.69927978515625 -107.901123046875Q388.5989990234375 -127.200927734375 404.59881591796875 -162.900634765625Q420.5986328125 -198.600341796875 420.5986328125 -247.05137928254013Q420.5986328125 -296.399658203125 404.59881591796875 -331.6993408203125Q388.5989990234375 -366.9990234375 358.69927978515625 -385.99884033203125Q328.799560546875 -404.9986572265625 287.5388581928454 -404.9986572265625Q245.4002685546875 -404.9986572265625 215.2005615234375 -385.6988525390625Q185.0008544921875 -366.3990478515625 168.801025390625 -331.39935302734375Q152.6011962890625 -296.399658203125 152.6011962890625 -247.05137928254013Q152.6011962890625 -198.600341796875 168.801025390625 -162.900634765625Q185.0008544921875 -127.200927734375 215.2005615234375 -107.901123046875Q245.4002685546875 -88.601318359375 287.5388581928454 -88.601318359375Z"/>
</g>
<circle cx="2115.40" cy="-635.30" r="73.50" fill="#E8A33D"/>
</svg>